<svg width="75" height="90" viewBox="0 0 75 90" fill="none" xmlns="http://www.w3.org/2000/svg">
<path d="M35.3484 0.0846036C22.8411 1.03791 12.4311 10.4184 10.1813 22.8113C10.0287 23.7265 9.83807 25.9763 9.79994 27.8447L9.64741 31.2766H4.84277H0V60.6383V90H37.4838H74.9676V60.6383V31.2766H70.1249H65.3202L65.2058 27.5778C65.1296 24.8704 65.0152 23.4214 64.7101 22.0868C63.528 16.5577 60.6681 11.4861 56.6261 7.63475C50.9063 2.18187 43.318 -0.525509 35.3484 0.0846036ZM39.9243 5.49936C42.5554 5.80441 44.9196 6.49079 47.3982 7.74915C51.0588 9.57949 53.8425 11.9437 56.016 15.2612C58.7615 19.3413 59.8292 23.1164 59.8292 28.5693V31.2766H57.8463C56.7786 31.2766 55.9397 31.2385 55.9397 31.1241C56.1304 30.8572 55.7109 25.1374 55.444 24.1459C54.4907 20.6378 52.7748 17.7016 50.2581 15.2993C47.055 12.2106 43.7756 10.6853 39.3142 10.1515C35.234 9.65575 30.62 10.8378 27.0738 13.2402C24.6333 14.918 21.8497 18.2355 20.6676 20.8666C19.5617 23.3452 19.2186 24.9848 19.1423 28.2261L19.0279 31.2766H17.1213H15.1766V28.6074C15.1766 24.1841 15.9011 21.0191 17.6551 17.5491C21.8497 9.27443 30.7726 4.46979 39.9243 5.49936ZM40.7632 15.8713C44.2713 16.7864 47.5507 19.4938 49.1904 22.7732C50.1818 24.7942 50.4868 26.0907 50.6012 28.8743L50.7156 31.2766H37.5982H24.4808V28.9887C24.4808 26.3576 24.8621 24.5273 25.7391 22.735C27.6457 18.9218 31.1539 16.3289 35.3484 15.5662C36.683 15.3756 39.3142 15.49 40.7632 15.8713ZM69.5529 60.6383V84.5852H37.4838H5.41475V60.6383V36.6914H37.4838H69.5529V60.6383Z" />
<path d="M35.1578 43.555C31.9166 44.4702 28.9042 46.9106 27.5314 49.8087C26.6162 51.7153 26.3875 52.8592 26.3875 55.0709C26.3875 57.13 26.7306 58.6172 27.7221 60.4475L28.4466 61.8584V70.0187V78.1789H38.1703H47.8939V69.8661L47.8558 61.5533L48.3515 60.7907C48.6184 60.3712 49.076 59.3798 49.3048 58.579C50.9826 53.5837 49.076 48.0546 44.6146 45.1184C42.5554 43.7457 41.3352 43.3644 38.5134 43.2881C36.8356 43.2881 35.8823 43.3262 35.1578 43.555ZM40.687 49.1604C44.462 50.8764 45.6441 55.5285 43.1656 58.8078L42.4029 59.7993V66.3198V72.8404H38.094H33.7851V66.358V59.8755L33.1368 59.1129C32.2598 58.0452 31.9547 57.3588 31.6878 55.9861C31.0777 52.6304 33.5563 49.2748 37.1407 48.6266C38.094 48.474 39.7337 48.7028 40.687 49.1604Z" />
</svg>
